<svg width="79" height="250" viewBox="0 0 79 250" fill="none" xmlns="http://www.w3.org/2000/svg">
<circle cx="14.5" cy="2.5" r="2.5" transform="rotate(90 14.5 2.5)" fill="#D9D9D9"/>
<circle cx="14.5" cy="149.5" r="2.5" transform="rotate(90 14.5 149.5)" fill="#D9D9D9"/>
<circle cx="45.5" cy="2.5" r="2.5" transform="rotate(90 45.5 2.5)" fill="#D9D9D9"/>
<circle cx="45.5" cy="149.5" r="2.5" transform="rotate(90 45.5 149.5)" fill="#D9D9D9"/>
<circle cx="76.5" cy="2.5" r="2.5" transform="rotate(90 76.5 2.5)" fill="#D9D9D9"/>
<circle cx="76.5" cy="149.5" r="2.5" transform="rotate(90 76.5 149.5)" fill="#D9D9D9"/>
<circle cx="14.5" cy="51.5" r="2.5" transform="rotate(90 14.5 51.5)" fill="#D9D9D9"/>
<circle cx="14.5" cy="198.5" r="2.5" transform="rotate(90 14.5 198.5)" fill="#D9D9D9"/>
<circle cx="45.5" cy="51.5" r="2.5" transform="rotate(90 45.5 51.5)" fill="#D9D9D9"/>
<circle cx="45.5" cy="198.5" r="2.5" transform="rotate(90 45.5 198.5)" fill="#D9D9D9"/>
<circle cx="76.5" cy="51.5" r="2.5" transform="rotate(90 76.5 51.5)" fill="#D9D9D9"/>
<circle cx="76.5" cy="198.5" r="2.5" transform="rotate(90 76.5 198.5)" fill="#D9D9D9"/>
<circle cx="14.5" cy="100.5" r="2.5" transform="rotate(90 14.5 100.5)" fill="#D9D9D9"/>
<circle cx="14.5" cy="247.5" r="2.5" transform="rotate(90 14.5 247.5)" fill="#D9D9D9"/>
<circle cx="45.5" cy="100.5" r="2.5" transform="rotate(90 45.5 100.5)" fill="#D9D9D9"/>
<circle cx="45.5" cy="247.5" r="2.5" transform="rotate(90 45.5 247.5)" fill="#D9D9D9"/>
<circle cx="76.5" cy="100.5" r="2.5" transform="rotate(90 76.5 100.5)" fill="#D9D9D9"/>
<circle cx="76.5" cy="247.5" r="2.5" transform="rotate(90 76.5 247.5)" fill="#D9D9D9"/>
</svg>
