<svg width="62" height="46" viewBox="0 0 62 46" fill="none" xmlns="http://www.w3.org/2000/svg">
<path d="M31.1225 17.6569C30.4819 18.587 29.8491 19.452 29.2667 20.3514C27.8186 22.5867 26.4442 24.8602 25.8928 27.5088C25.2134 30.7621 27.0382 33.4146 30.3499 33.9887C36.558 35.0604 42.0556 33.361 47.0368 29.767C49.0091 28.3432 49.4867 26.3146 48.2326 24.2554C47.4212 22.9196 46.3846 21.6681 45.2509 20.5811C40.9064 16.3976 35.8281 13.4581 29.8103 12.2908C23.1091 10.9894 16.9476 12.4018 11.1938 15.923C9.97854 16.6656 8.69732 17.4578 7.33845 17.7794C4.48871 18.4568 1.65838 16.8876 0.524697 14.304C-0.624518 11.686 0.148096 8.65466 2.50865 6.95144C6.52702 4.05404 10.9453 1.93362 15.8333 0.961442C29.5268 -1.75606 41.9042 1.33271 52.9188 9.6498C56.3897 12.2716 59.2472 15.5862 60.8507 19.6931C62.823 24.7454 62.3727 29.5794 58.595 33.7093C52.8373 39.9978 45.7479 44.1238 37.2142 45.5209C32.1242 46.3553 27.0382 46.1983 22.1579 44.2616C18.9393 42.9871 16.008 41.1805 13.993 38.3788C10.7861 33.9198 10.7861 29.1163 13.1001 24.2516C14.2143 21.9092 15.7712 19.8692 17.5416 17.9746C17.7008 17.8023 17.8872 17.6224 18.0968 17.5306C21.2106 16.1642 24.4291 15.3795 27.8574 15.969C29.0959 16.1795 30.1791 16.7383 31.1225 17.6569Z" fill="white"/>
</svg>
